<?xml version="1.0" encoding="UTF-8" standalone="no"?>
<!DOCTYPE svg PUBLIC "-//W3C//DTD SVG 1.0//EN" "http://www.w3.org/TR/2001/REC-SVG-20010904/DTD/svg10.dtd">
<svg xmlns="http://www.w3.org/2000/svg" version="1.0" viewBox="0.00 0.00 512.00 512.00">
<g stroke-width="2.00" fill="none" stroke-linecap="butt">
<path stroke="#7f7867" vector-effect="non-scaling-stroke" d="
  M 420.62 97.71
  Q 419.62 105.18 412.00 105.17
  Q 330.55 105.16 242.82 105.27
  Q 242.13 105.27 242.62 105.76
  Q 260.60 123.70 277.14 140.25
  C 283.93 147.04 274.90 157.34 267.58 151.82
  Q 266.97 151.36 263.84 148.21
  Q 244.40 128.70 224.15 108.60
  Q 223.80 108.25 223.38 108.52
  Q 199.32 124.19 173.82 111.77
  C 170.66 110.23 167.55 107.83 164.74 105.57
  Q 164.31 105.22 163.75 105.22
  L 79.72 105.22
  Q 79.17 105.22 79.17 105.78
  L 79.17 410.31
  A 0.46 0.46 0.0 0 0 79.63 410.77
  Q 115.96 410.82 158.63 410.74
  C 163.55 410.73 166.99 413.22 167.37 418.40"
/>
<path stroke="#7f704e" vector-effect="non-scaling-stroke" d="
  M 167.37 418.40
  C 166.88 422.71 164.09 425.78 159.80 425.78
  Q 86.79 425.76 16.13 425.78
  Q 15.54 425.78 15.63 426.36
  C 19.42 451.50 38.46 470.22 63.12 474.17
  Q 68.60 475.05 81.96 475.03
  Q 239.84 474.87 395.50 474.98
  Q 396.58 474.98 395.74 474.30
  Q 372.90 455.73 369.06 426.02
  A 0.26 0.26 0.0 0 0 368.80 425.79
  Q 282.73 425.75 195.94 425.79
  Q 193.49 425.79 191.51 424.44
  Q 188.50 422.39 188.21 418.20"
/>
<path stroke="#7f7867" vector-effect="non-scaling-stroke" d="
  M 188.21 418.20
  Q 189.26 410.77 196.25 410.77
  Q 286.25 410.78 376.25 410.77
  C 380.37 410.77 383.63 414.17 383.74 418.34
  Q 384.36 442.99 401.45 459.31
  C 414.43 471.71 432.90 477.26 450.30 473.97
  C 478.24 468.69 496.99 445.41 496.99 416.75
  Q 496.99 260.78 496.98 105.85
  Q 496.98 105.33 496.47 105.33
  Q 459.77 104.99 450.27 105.25
  Q 441.77 105.48 440.65 97.72"
/>
<path stroke="#2e1660" vector-effect="non-scaling-stroke" d="
  M 176.00 43.88
  A 32.53 32.52 67.7 0 0 163.58 73.52
  A 32.52 32.52 0.0 0 0 189.01 101.42
  A 32.54 32.52 24.9 0 0 221.60 89.52"
/>
<path stroke="#3f2b66" vector-effect="non-scaling-stroke" d="
  M 221.60 89.52
  A 32.54 32.52 -39.6 0 0 224.86 54.87
  A 32.52 32.50 78.8 0 0 198.52 37.21
  A 32.50 32.49 -61.5 0 0 176.00 43.88"
/>
<path stroke="#6d40c6" vector-effect="non-scaling-stroke" d="
  M 221.60 89.52
  Q 218.49 89.59 215.53 89.58
  C 201.68 89.56 189.22 82.26 181.92 70.79
  Q 174.65 59.37 176.00 43.88"
/>
<path stroke="#fee8b4" vector-effect="non-scaling-stroke" d="
  M 188.21 418.20
  L 167.37 418.40"
/>
<path stroke="#7f7867" vector-effect="non-scaling-stroke" d="
  M 304.95 297.60
  C 324.89 296.96 352.73 289.46 358.41 267.42
  C 363.89 246.16 351.40 229.71 333.32 220.14
  Q 322.47 214.40 307.78 210.93
  Q 304.88 210.25 302.57 210.63
  C 298.89 211.24 296.55 214.67 296.55 218.34
  Q 296.55 254.08 296.56 289.49
  C 296.56 294.46 299.97 297.75 304.95 297.60"
/>
<path stroke="#7f7867" vector-effect="non-scaling-stroke" d="
  M 176.01 233.45
  Q 183.45 233.49 191.16 233.52
  C 201.99 233.55 201.80 218.44 191.78 218.42
  Q 165.93 218.39 143.69 218.45
  C 133.85 218.48 133.51 233.65 144.99 233.53
  Q 153.01 233.44 159.73 233.49
  Q 160.31 233.50 160.31 234.09
  Q 160.29 261.54 160.29 289.27
  C 160.29 300.26 175.31 300.33 175.32 289.31
  Q 175.35 261.25 175.30 234.15
  Q 175.30 233.44 176.01 233.45"
/>
<path stroke="#7f7867" vector-effect="non-scaling-stroke" d="
  M 231.9500 297.5400
  A 39.54 31.53 90.0 0 0 263.4800 258.0000
  A 39.54 31.53 90.0 0 0 231.9500 218.4600
  A 39.54 31.53 90.0 0 0 200.4200 258.0000
  A 39.54 31.53 90.0 0 0 231.9500 297.5400"
/>
<path stroke="#7f7867" vector-effect="non-scaling-stroke" d="
  M 408.2900 297.5400
  A 39.54 31.53 90.0 0 0 439.8200 258.0000
  A 39.54 31.53 90.0 0 0 408.2900 218.4600
  A 39.54 31.53 90.0 0 0 376.7600 258.0000
  A 39.54 31.53 90.0 0 0 408.2900 297.5400"
/>
<path stroke="#7f7867" vector-effect="non-scaling-stroke" d="
  M 383.71 330.06
  A 7.47 7.47 0.0 0 0 376.24 322.59
  L 215.94 322.59
  A 7.47 7.47 0.0 0 0 208.47 330.06
  L 208.47 330.22
  A 7.47 7.47 0.0 0 0 215.94 337.69
  L 376.24 337.69
  A 7.47 7.47 0.0 0 0 383.71 330.22
  L 383.71 330.06"
/>
<path stroke="#7f7867" vector-effect="non-scaling-stroke" d="
  M 343.63 370.13
  A 7.38 7.38 0.0 0 0 336.25 362.75
  L 231.87 362.75
  A 7.38 7.38 0.0 0 0 224.49 370.13
  L 224.49 370.35
  A 7.38 7.38 0.0 0 0 231.87 377.73
  L 336.25 377.73
  A 7.38 7.38 0.0 0 0 343.63 370.35
  L 343.63 370.13"
/>
<path stroke="#7f7867" vector-effect="non-scaling-stroke" d="
  M 344.62 257.37
  C 344.00 240.58 326.18 232.23 312.28 227.70
  Q 311.60 227.47 311.60 228.19
  L 311.59 281.54
  A 0.39 0.37 -3.4 0 0 312.02 281.91
  C 325.23 280.26 345.25 274.61 344.62 257.37"
/>
<path stroke="#7f7867" vector-effect="non-scaling-stroke" d="
  M 231.9500 282.4600
  A 24.46 16.46 90.0 0 0 248.4100 258.0000
  A 24.46 16.46 90.0 0 0 231.9500 233.5400
  A 24.46 16.46 90.0 0 0 215.4900 258.0000
  A 24.46 16.46 90.0 0 0 231.9500 282.4600"
/>
<path stroke="#7f7867" vector-effect="non-scaling-stroke" d="
  M 408.2900 282.4600
  A 24.46 16.46 90.0 0 0 424.7500 258.0000
  A 24.46 16.46 90.0 0 0 408.2900 233.5400
  A 24.46 16.46 90.0 0 0 391.8300 258.0000
  A 24.46 16.46 90.0 0 0 408.2900 282.4600"
/>
</g>
<path fill="#000000" d="
  M 420.62 97.71
  Q 419.62 105.18 412.00 105.17
  Q 330.55 105.16 242.82 105.27
  Q 242.13 105.27 242.62 105.76
  Q 260.60 123.70 277.14 140.25
  C 283.93 147.04 274.90 157.34 267.58 151.82
  Q 266.97 151.36 263.84 148.21
  Q 244.40 128.70 224.15 108.60
  Q 223.80 108.25 223.38 108.52
  Q 199.32 124.19 173.82 111.77
  C 170.66 110.23 167.55 107.83 164.74 105.57
  Q 164.31 105.22 163.75 105.22
  L 79.72 105.22
  Q 79.17 105.22 79.17 105.78
  L 79.17 410.31
  A 0.46 0.46 0.0 0 0 79.63 410.77
  Q 115.96 410.82 158.63 410.74
  C 163.55 410.73 166.99 413.22 167.37 418.40
  C 166.88 422.71 164.09 425.78 159.80 425.78
  Q 86.79 425.76 16.13 425.78
  Q 15.54 425.78 15.63 426.36
  C 19.42 451.50 38.46 470.22 63.12 474.17
  Q 68.60 475.05 81.96 475.03
  Q 239.84 474.87 395.50 474.98
  Q 396.58 474.98 395.74 474.30
  Q 372.90 455.73 369.06 426.02
  A 0.26 0.26 0.0 0 0 368.80 425.79
  Q 282.73 425.75 195.94 425.79
  Q 193.49 425.79 191.51 424.44
  Q 188.50 422.39 188.21 418.20
  Q 189.26 410.77 196.25 410.77
  Q 286.25 410.78 376.25 410.77
  C 380.37 410.77 383.63 414.17 383.74 418.34
  Q 384.36 442.99 401.45 459.31
  C 414.43 471.71 432.90 477.26 450.30 473.97
  C 478.24 468.69 496.99 445.41 496.99 416.75
  Q 496.99 260.78 496.98 105.85
  Q 496.98 105.33 496.47 105.33
  Q 459.77 104.99 450.27 105.25
  Q 441.77 105.48 440.65 97.72
  Q 441.10 93.55 444.00 91.55
  Q 445.93 90.22 450.26 90.22
  Q 477.39 90.23 504.50 90.21
  Q 510.36 90.20 512.00 96.57
  L 512.00 422.31
  C 508.83 461.58 478.22 490.00 438.76 489.98
  Q 261.72 489.88 77.29 490.02
  Q 66.65 490.03 60.29 489.03
  C 26.84 483.79 2.63 456.07 0.00 422.38
  L 0.00 417.00
  Q 1.87 410.78 9.00 410.78
  Q 36.37 410.78 63.74 410.78
  Q 64.15 410.78 64.15 410.37
  Q 64.13 256.07 64.13 98.07
  C 64.13 93.52 67.23 90.23 71.99 90.23
  Q 115.26 90.21 152.36 90.22
  A 0.43 0.42 -12.4 0 0 152.75 89.62
  C 135.88 52.87 169.39 13.34 208.28 23.74
  C 236.90 31.40 251.16 62.79 239.02 89.63
  Q 238.78 90.16 239.37 90.17
  Q 330.03 90.35 412.73 90.17
  Q 414.96 90.16 416.94 91.33
  Q 420.11 93.21 420.62 97.71
  Z
  M 176.00 43.88
  A 32.53 32.52 67.7 0 0 163.58 73.52
  A 32.52 32.52 0.0 0 0 189.01 101.42
  A 32.54 32.52 24.9 0 0 221.60 89.52
  A 32.54 32.52 -39.6 0 0 224.86 54.87
  A 32.52 32.50 78.8 0 0 198.52 37.21
  A 32.50 32.49 -61.5 0 0 176.00 43.88
  Z"
/>
<path fill="#7d55cc" d="
  M 221.60 89.52
  Q 218.49 89.59 215.53 89.58
  C 201.68 89.56 189.22 82.26 181.92 70.79
  Q 174.65 59.37 176.00 43.88
  A 32.50 32.49 -61.5 0 1 198.52 37.21
  A 32.52 32.50 78.8 0 1 224.86 54.87
  A 32.54 32.52 -39.6 0 1 221.60 89.52
  Z"
/>
<path fill="#5c2bbf" d="
  M 176.00 43.88
  Q 174.65 59.37 181.92 70.79
  C 189.22 82.26 201.68 89.56 215.53 89.58
  Q 218.49 89.59 221.60 89.52
  A 32.54 32.52 24.9 0 1 189.01 101.42
  A 32.52 32.52 0.0 0 1 163.58 73.52
  A 32.53 32.52 67.7 0 1 176.00 43.88
  Z"
/>
<path fill="#feefcd" d="
  M 420.62 97.71
  L 440.65 97.72
  Q 441.77 105.48 450.27 105.25
  Q 459.77 104.99 496.47 105.33
  Q 496.98 105.33 496.98 105.85
  Q 496.99 260.78 496.99 416.75
  C 496.99 445.41 478.24 468.69 450.30 473.97
  C 432.90 477.26 414.43 471.71 401.45 459.31
  Q 384.36 442.99 383.74 418.34
  C 383.63 414.17 380.37 410.77 376.25 410.77
  Q 286.25 410.78 196.25 410.77
  Q 189.26 410.77 188.21 418.20
  L 167.37 418.40
  C 166.99 413.22 163.55 410.73 158.63 410.74
  Q 115.96 410.82 79.63 410.77
  A 0.46 0.46 0.0 0 1 79.17 410.31
  L 79.17 105.78
  Q 79.17 105.22 79.72 105.22
  L 163.75 105.22
  Q 164.31 105.22 164.74 105.57
  C 167.55 107.83 170.66 110.23 173.82 111.77
  Q 199.32 124.19 223.38 108.52
  Q 223.80 108.25 224.15 108.60
  Q 244.40 128.70 263.84 148.21
  Q 266.97 151.36 267.58 151.82
  C 274.90 157.34 283.93 147.04 277.14 140.25
  Q 260.60 123.70 242.62 105.76
  Q 242.13 105.27 242.82 105.27
  Q 330.55 105.16 412.00 105.17
  Q 419.62 105.18 420.62 97.71
  Z
  M 304.95 297.60
  C 324.89 296.96 352.73 289.46 358.41 267.42
  C 363.89 246.16 351.40 229.71 333.32 220.14
  Q 322.47 214.40 307.78 210.93
  Q 304.88 210.25 302.57 210.63
  C 298.89 211.24 296.55 214.67 296.55 218.34
  Q 296.55 254.08 296.56 289.49
  C 296.56 294.46 299.97 297.75 304.95 297.60
  Z
  M 176.01 233.45
  Q 183.45 233.49 191.16 233.52
  C 201.99 233.55 201.80 218.44 191.78 218.42
  Q 165.93 218.39 143.69 218.45
  C 133.85 218.48 133.51 233.65 144.99 233.53
  Q 153.01 233.44 159.73 233.49
  Q 160.31 233.50 160.31 234.09
  Q 160.29 261.54 160.29 289.27
  C 160.29 300.26 175.31 300.33 175.32 289.31
  Q 175.35 261.25 175.30 234.15
  Q 175.30 233.44 176.01 233.45
  Z
  M 231.9500 297.5400
  A 39.54 31.53 90.0 0 0 263.4800 258.0000
  A 39.54 31.53 90.0 0 0 231.9500 218.4600
  A 39.54 31.53 90.0 0 0 200.4200 258.0000
  A 39.54 31.53 90.0 0 0 231.9500 297.5400
  Z
  M 408.2900 297.5400
  A 39.54 31.53 90.0 0 0 439.8200 258.0000
  A 39.54 31.53 90.0 0 0 408.2900 218.4600
  A 39.54 31.53 90.0 0 0 376.7600 258.0000
  A 39.54 31.53 90.0 0 0 408.2900 297.5400
  Z
  M 383.71 330.06
  A 7.47 7.47 0.0 0 0 376.24 322.59
  L 215.94 322.59
  A 7.47 7.47 0.0 0 0 208.47 330.06
  L 208.47 330.22
  A 7.47 7.47 0.0 0 0 215.94 337.69
  L 376.24 337.69
  A 7.47 7.47 0.0 0 0 383.71 330.22
  L 383.71 330.06
  Z
  M 343.63 370.13
  A 7.38 7.38 0.0 0 0 336.25 362.75
  L 231.87 362.75
  A 7.38 7.38 0.0 0 0 224.49 370.13
  L 224.49 370.35
  A 7.38 7.38 0.0 0 0 231.87 377.73
  L 336.25 377.73
  A 7.38 7.38 0.0 0 0 343.63 370.35
  L 343.63 370.13
  Z"
/>
<path fill="#000000" d="
  M 358.41 267.42
  C 352.73 289.46 324.89 296.96 304.95 297.60
  C 299.97 297.75 296.56 294.46 296.56 289.49
  Q 296.55 254.08 296.55 218.34
  C 296.55 214.67 298.89 211.24 302.57 210.63
  Q 304.88 210.25 307.78 210.93
  Q 322.47 214.40 333.32 220.14
  C 351.40 229.71 363.89 246.16 358.41 267.42
  Z
  M 344.62 257.37
  C 344.00 240.58 326.18 232.23 312.28 227.70
  Q 311.60 227.47 311.60 228.19
  L 311.59 281.54
  A 0.39 0.37 -3.4 0 0 312.02 281.91
  C 325.23 280.26 345.25 274.61 344.62 257.37
  Z"
/>
<path fill="#000000" d="
  M 175.30 234.15
  Q 175.35 261.25 175.32 289.31
  C 175.31 300.33 160.29 300.26 160.29 289.27
  Q 160.29 261.54 160.31 234.09
  Q 160.31 233.50 159.73 233.49
  Q 153.01 233.44 144.99 233.53
  C 133.51 233.65 133.85 218.48 143.69 218.45
  Q 165.93 218.39 191.78 218.42
  C 201.80 218.44 201.99 233.55 191.16 233.52
  Q 183.45 233.49 176.01 233.45
  Q 175.30 233.44 175.30 234.15
  Z"
/>
<path fill="#000000" d="
  M 231.9500 297.5400
  A 39.54 31.53 90.0 0 1 200.4200 258.0000
  A 39.54 31.53 90.0 0 1 231.9500 218.4600
  A 39.54 31.53 90.0 0 1 263.4800 258.0000
  A 39.54 31.53 90.0 0 1 231.9500 297.5400
  Z
  M 231.9500 282.4600
  A 24.46 16.46 90.0 0 0 248.4100 258.0000
  A 24.46 16.46 90.0 0 0 231.9500 233.5400
  A 24.46 16.46 90.0 0 0 215.4900 258.0000
  A 24.46 16.46 90.0 0 0 231.9500 282.4600
  Z"
/>
<path fill="#000000" d="
  M 408.2900 297.5400
  A 39.54 31.53 90.0 0 1 376.7600 258.0000
  A 39.54 31.53 90.0 0 1 408.2900 218.4600
  A 39.54 31.53 90.0 0 1 439.8200 258.0000
  A 39.54 31.53 90.0 0 1 408.2900 297.5400
  Z
  M 408.2900 282.4600
  A 24.46 16.46 90.0 0 0 424.7500 258.0000
  A 24.46 16.46 90.0 0 0 408.2900 233.5400
  A 24.46 16.46 90.0 0 0 391.8300 258.0000
  A 24.46 16.46 90.0 0 0 408.2900 282.4600
  Z"
/>
<path fill="#feefcd" d="
  M 312.28 227.70
  C 326.18 232.23 344.00 240.58 344.62 257.37
  C 345.25 274.61 325.23 280.26 312.02 281.91
  A 0.39 0.37 -3.4 0 1 311.59 281.54
  L 311.60 228.19
  Q 311.60 227.47 312.28 227.70
  Z"
/>
<ellipse fill="#feefcd" cx="0.00" cy="0.00" transform="translate(231.95,258.00) rotate(90.0)" rx="24.46" ry="16.46"/>
<ellipse fill="#feefcd" cx="0.00" cy="0.00" transform="translate(408.29,258.00) rotate(90.0)" rx="24.46" ry="16.46"/>
<rect fill="#000000" x="208.47" y="322.59" width="175.24" height="15.10" rx="7.47"/>
<rect fill="#000000" x="224.49" y="362.75" width="119.14" height="14.98" rx="7.38"/>
<path fill="#fde09b" d="
  M 188.21 418.20
  Q 188.50 422.39 191.51 424.44
  Q 193.49 425.79 195.94 425.79
  Q 282.73 425.75 368.80 425.79
  A 0.26 0.26 0.0 0 1 369.06 426.02
  Q 372.90 455.73 395.74 474.30
  Q 396.58 474.98 395.50 474.98
  Q 239.84 474.87 81.96 475.03
  Q 68.60 475.05 63.12 474.17
  C 38.46 470.22 19.42 451.50 15.63 426.36
  Q 15.54 425.78 16.13 425.78
  Q 86.79 425.76 159.80 425.78
  C 164.09 425.78 166.88 422.71 167.37 418.40
  L 188.21 418.20
  Z"
/>
</svg>
